<?xml version="1.0" encoding="UTF-8"?> <svg xmlns="http://www.w3.org/2000/svg" width="30" height="27" viewBox="0 0 30 27" fill="none"><path d="M13.811 8.30518H3.40234V22.6987C3.40234 22.7681 3.45877 22.8245 3.52814 22.8245H13.811V8.30518Z" fill="#85C6EB"></path><path d="M26.4713 0H3.52863C1.58297 0 0 1.58291 0 3.52863V22.6988C0 24.6444 1.58297 26.2273 3.52863 26.2273H26.4714C28.417 26.2273 30 24.6444 30 22.6988V3.52863C29.9999 1.58291 28.417 0 26.4713 0ZM1.17187 3.52863C1.17187 2.22914 2.22908 1.17193 3.52863 1.17193H26.4714C27.7709 1.17193 28.8281 2.22914 28.8281 3.52863V4.90224H1.17187V3.52863ZM28.8281 22.6987C28.8281 23.9982 27.7709 25.0554 26.4713 25.0554H3.52863C2.22908 25.0555 1.17187 23.9983 1.17187 22.6987V6.07405H28.8281V22.6987Z" fill="#0A20A0"></path><path d="M5.17968 2.45117H4.42969C4.10613 2.45117 3.84375 2.7135 3.84375 3.03711C3.84375 3.36072 4.10613 3.62304 4.42969 3.62304H5.17968C5.50324 3.62304 5.76562 3.36072 5.76562 3.03711C5.76562 2.7135 5.5033 2.45117 5.17968 2.45117Z" fill="#0A20A0"></path><path d="M8.34179 2.45117H7.5918C7.26824 2.45117 7.00586 2.7135 7.00586 3.03711C7.00586 3.36072 7.26824 3.62304 7.5918 3.62304H8.34179C8.66535 3.62304 8.92773 3.36072 8.92773 3.03711C8.92773 2.7135 8.66541 2.45117 8.34179 2.45117Z" fill="#0A20A0"></path><path d="M11.5019 2.45117H10.752C10.4284 2.45117 10.166 2.7135 10.166 3.03711C10.166 3.36072 10.4284 3.62304 10.752 3.62304H11.5019C11.8254 3.62304 12.0878 3.36072 12.0878 3.03711C12.0878 2.7135 11.8255 2.45117 11.5019 2.45117Z" fill="#0A20A0"></path><path d="M26.4252 2.45117H16.2969C15.9733 2.45117 15.7109 2.7135 15.7109 3.03711C15.7109 3.36072 15.9733 3.62304 16.2969 3.62304H26.4252C26.7487 3.62304 27.0111 3.36072 27.0111 3.03711C27.0111 2.7135 26.7488 2.45117 26.4252 2.45117Z" fill="#0A20A0"></path><path d="M16.1875 8.89062H26.5962C26.9197 8.89062 27.1821 8.6283 27.1821 8.30469C27.1821 7.98107 26.9197 7.71875 26.5962 7.71875H16.1875C15.8639 7.71875 15.6016 7.98107 15.6016 8.30469C15.6016 8.6283 15.8639 8.89062 16.1875 8.89062Z" fill="#0A20A0"></path><path d="M26.5972 10.1235H21.3613C21.0378 10.1235 20.7754 10.3859 20.7754 10.7095C20.7754 11.0331 21.0378 11.2954 21.3613 11.2954H26.5972C26.9208 11.2954 27.1831 11.0331 27.1831 10.7095C27.1831 10.3859 26.9208 10.1235 26.5972 10.1235Z" fill="#0A20A0"></path><path d="M6.47266 12.7598H10.7428C11.0663 12.7598 11.3287 12.4974 11.3287 12.1738C11.3287 11.8502 11.0663 11.5879 10.7428 11.5879H6.47266C6.1491 11.5879 5.88672 11.8502 5.88672 12.1738C5.88672 12.4974 6.1491 12.7598 6.47266 12.7598Z" fill="#0A20A0"></path><path d="M6.47266 16.1899H10.7428C11.0663 16.1899 11.3287 15.9276 11.3287 15.604C11.3287 15.2804 11.0663 15.0181 10.7428 15.0181H6.47266C6.1491 15.0181 5.88672 15.2804 5.88672 15.604C5.88672 15.9276 6.1491 16.1899 6.47266 16.1899Z" fill="#0A20A0"></path><path d="M6.47266 19.6196H10.7428C11.0663 19.6196 11.3287 19.3573 11.3287 19.0337C11.3287 18.7101 11.0663 18.4478 10.7428 18.4478H6.47266C6.1491 18.4478 5.88672 18.7101 5.88672 19.0337C5.88672 19.3573 6.1491 19.6196 6.47266 19.6196Z" fill="#0A20A0"></path><path d="M22.8917 18.8867C23.3277 18.4777 23.6005 17.8968 23.6005 17.2534C23.6005 16.0184 22.5958 15.0137 21.3608 15.0137C20.1259 15.0137 19.1212 16.0184 19.1212 17.2534C19.1212 17.8968 19.394 18.4778 19.83 18.8867C19.6357 19.0062 19.4541 19.1493 19.2888 19.3146C19.06 19.5434 19.06 19.9144 19.2888 20.1433C19.5177 20.3721 19.8887 20.3721 20.1175 20.1433C20.4496 19.8111 20.8912 19.6282 21.3609 19.6282C21.8306 19.6282 22.2721 19.8111 22.6043 20.1433C22.7187 20.2577 22.8686 20.3149 23.0186 20.3149C23.1685 20.3149 23.3185 20.2576 23.4329 20.1433C23.6617 19.9144 23.6617 19.5434 23.4329 19.3146C23.2676 19.1492 23.086 19.0061 22.8917 18.8867ZM21.3608 16.1855C21.9496 16.1855 22.4286 16.6645 22.4286 17.2533C22.4286 17.8421 21.9496 18.3212 21.3608 18.3212C20.7721 18.3212 20.2931 17.8422 20.2931 17.2533C20.2931 16.6645 20.7722 16.1855 21.3608 16.1855Z" fill="#0A20A0"></path><path d="M21.3604 12.5278C18.353 12.5278 15.9062 14.9747 15.9062 17.9824C15.9062 20.99 18.353 23.4369 21.3604 23.4369C24.3679 23.4369 26.8146 20.99 26.8146 17.9824C26.8146 14.9748 24.3679 12.5278 21.3604 12.5278ZM21.3604 22.265C18.9992 22.265 17.0781 20.3438 17.0781 17.9824C17.0781 15.6209 18.9992 13.6997 21.3604 13.6997C23.7217 13.6997 25.6428 15.6209 25.6428 17.9824C25.6428 20.3439 23.7217 22.265 21.3604 22.265Z" fill="#0A20A0"></path></svg> 