<svg xmlns="http://www.w3.org/2000/svg" xmlns:xlink="http://www.w3.org/1999/xlink" id="Layer_1" x="0px" y="0px" viewBox="0 0 167.64 63.39" style="enable-background:new 0 0 167.64 63.39;" xml:space="preserve"> <style type="text/css"> .st0{fill:#41669B;} .st1{fill:#87B049;} </style> <path class="st0" d="M32.4,41.39c-2.7,1.19-5.8,1.79-9.32,1.79c-3.21,0-6.17-0.51-8.88-1.53c-2.72-1.02-5.07-2.47-7.07-4.34 c-1.99-1.87-3.56-4.11-4.69-6.72c-1.13-2.61-1.7-5.48-1.7-8.62c0-3.21,0.58-6.12,1.73-8.73s2.75-4.83,4.78-6.66 c2.03-1.83,4.42-3.24,7.15-4.23c2.74-0.98,5.69-1.48,8.85-1.48c2.93,0,5.81,0.5,8.65,1.5c2.83,1,5.13,2.47,6.89,4.4l-6.8,6.58 c-0.94-1.25-2.17-2.17-3.69-2.78c-1.52-0.6-3.09-0.91-4.69-0.91c-1.76,0-3.37,0.31-4.84,0.94c-1.47,0.62-2.73,1.48-3.78,2.58 c-1.05,1.1-1.88,2.39-2.46,3.89c-0.59,1.49-0.88,3.13-0.88,4.91c0,1.81,0.29,3.48,0.88,4.99c0.59,1.51,1.4,2.81,2.43,3.89 c1.03,1.08,2.28,1.92,3.72,2.52c1.45,0.61,3.03,0.91,4.75,0.91c1.99,0,3.73-0.38,5.22-1.13c1.49-0.76,2.68-1.74,3.58-2.95l6.98,6.35 C37.36,38.59,35.1,40.2,32.4,41.39"></path> <polygon class="st1" points="44.95,42.1 44.95,1.95 72.85,1.95 72.85,10.12 54.62,10.12 54.62,17.72 71.86,17.72 71.86,25.49 54.62,25.49 54.62,33.82 73.91,33.82 73.91,42.1 "></polygon> <path class="st0" d="M111.72,41.39c-2.7,1.19-5.8,1.79-9.32,1.79c-3.2,0-6.17-0.51-8.88-1.53c-2.72-1.02-5.07-2.47-7.07-4.34 c-1.99-1.87-3.56-4.11-4.69-6.72c-1.13-2.61-1.7-5.48-1.7-8.62c0-3.21,0.58-6.12,1.73-8.73c1.15-2.61,2.75-4.83,4.78-6.66 c2.03-1.83,4.42-3.24,7.15-4.23c2.74-0.98,5.69-1.48,8.85-1.48c2.93,0,5.81,0.5,8.65,1.5c2.83,1,5.13,2.47,6.89,4.4l-6.8,6.58 c-0.94-1.25-2.17-2.17-3.69-2.78c-1.52-0.6-3.09-0.91-4.69-0.91c-1.76,0-3.37,0.31-4.84,0.94c-1.47,0.62-2.73,1.48-3.78,2.58 c-1.05,1.1-1.88,2.39-2.46,3.89c-0.59,1.49-0.88,3.13-0.88,4.91c0,1.81,0.29,3.48,0.88,4.99c0.59,1.51,1.4,2.81,2.43,3.89 c1.04,1.08,2.28,1.92,3.72,2.52c1.45,0.61,3.03,0.91,4.75,0.91c1.99,0,3.73-0.38,5.22-1.13c1.48-0.76,2.68-1.74,3.58-2.95l6.98,6.35 C116.69,38.59,114.42,40.2,111.72,41.39"></path> <path class="st0" d="M156.1,21.86c0-1.74-0.29-3.36-0.88-4.88c-0.59-1.51-1.4-2.81-2.43-3.89c-1.04-1.08-2.29-1.93-3.75-2.55 c-1.46-0.62-3.08-0.94-4.84-0.94c-1.76,0-3.36,0.31-4.81,0.94c-1.45,0.62-2.7,1.48-3.75,2.55c-1.06,1.08-1.87,2.37-2.43,3.89 c-0.57,1.51-0.85,3.14-0.85,4.88c0,1.82,0.29,3.49,0.88,5.02s1.4,2.85,2.43,3.94c1.04,1.1,2.28,1.96,3.72,2.58 c1.45,0.62,3.05,0.93,4.81,0.93c1.76,0,3.36-0.31,4.81-0.93c1.45-0.62,2.7-1.48,3.75-2.58c1.06-1.1,1.88-2.41,2.46-3.94 C155.81,25.34,156.1,23.67,156.1,21.86 M166.83,21.86c0,3.18-0.57,6.08-1.7,8.71c-1.13,2.63-2.71,4.88-4.72,6.75 c-2.01,1.87-4.41,3.32-7.18,4.34s-5.79,1.53-9.03,1.53c-3.24,0-6.24-0.51-9-1.53c-2.76-1.02-5.14-2.47-7.15-4.34 c-2.01-1.87-3.59-4.12-4.72-6.75c-1.13-2.63-1.7-5.53-1.7-8.71c0-3.21,0.57-6.11,1.7-8.7c1.13-2.59,2.71-4.79,4.72-6.61 c2.01-1.82,4.4-3.21,7.15-4.2c2.76-0.98,5.76-1.47,9-1.47c3.24,0,6.25,0.49,9.03,1.47s5.17,2.38,7.18,4.2s3.59,4.02,4.72,6.61 C166.27,15.74,166.83,18.64,166.83,21.86"></path> <polygon class="st1" points="4.22,62.24 4.22,51.28 11.84,51.28 11.84,53.51 6.86,53.51 6.86,55.59 11.57,55.59 11.57,57.71 6.86,57.71 6.86,59.98 12.13,59.98 12.13,62.24 "></polygon> <polygon class="st1" points="22.85,62.24 18.29,55.08 18.24,55.08 18.31,62.24 15.65,62.24 15.65,51.28 18.77,51.28 23.31,58.44 23.36,58.44 23.3,51.28 25.96,51.28 25.96,62.24 "></polygon> <polygon class="st1" points="35.62,62.24 32.88,62.24 28.6,51.28 31.67,51.28 34.29,59.05 34.36,59.05 36.97,51.28 39.99,51.28 "></polygon> <rect x="42.63" y="51.28" class="st1" width="2.75" height="10.96"></rect> <path class="st1" d="M55.39,54.64c0-0.26-0.06-0.47-0.17-0.63c-0.11-0.16-0.26-0.28-0.43-0.37c-0.18-0.09-0.38-0.15-0.6-0.18 c-0.22-0.03-0.43-0.05-0.64-0.05h-1.46v2.55h1.3c0.23,0,0.46-0.02,0.69-0.05c0.24-0.04,0.45-0.1,0.64-0.19 c0.19-0.09,0.35-0.23,0.47-0.4C55.33,55.15,55.39,54.92,55.39,54.64 M55.5,62.24l-2.46-4.35h-0.93v4.35h-2.67V51.28h4.32 c0.54,0,1.07,0.05,1.59,0.16c0.52,0.11,0.98,0.29,1.39,0.55c0.41,0.26,0.74,0.6,0.98,1.02c0.24,0.42,0.37,0.95,0.37,1.58 c0,0.74-0.21,1.37-0.62,1.87c-0.42,0.51-0.99,0.87-1.73,1.08l2.96,4.69H55.5z"></path> <path class="st1" d="M70.64,56.72c0-0.47-0.08-0.92-0.24-1.33c-0.16-0.41-0.38-0.77-0.66-1.06c-0.28-0.29-0.62-0.53-1.02-0.7 c-0.4-0.17-0.84-0.26-1.32-0.26c-0.48,0-0.92,0.09-1.31,0.26c-0.39,0.17-0.74,0.4-1.02,0.7c-0.29,0.29-0.51,0.65-0.67,1.06 c-0.15,0.41-0.23,0.86-0.23,1.33c0,0.5,0.08,0.95,0.24,1.37c0.16,0.42,0.38,0.78,0.67,1.08c0.28,0.3,0.62,0.53,1.02,0.7 c0.4,0.17,0.83,0.26,1.31,0.26c0.48,0,0.92-0.08,1.31-0.26c0.39-0.17,0.74-0.4,1.02-0.7c0.29-0.3,0.51-0.66,0.67-1.08 S70.64,57.21,70.64,56.72 M73.57,56.72c0,0.87-0.16,1.66-0.46,2.38c-0.31,0.72-0.74,1.33-1.29,1.84c-0.55,0.51-1.2,0.9-1.96,1.18 c-0.76,0.28-1.58,0.42-2.46,0.42c-0.89,0-1.7-0.14-2.46-0.42c-0.75-0.28-1.4-0.67-1.95-1.18c-0.55-0.51-0.98-1.12-1.29-1.84 c-0.31-0.72-0.46-1.51-0.46-2.38c0-0.88,0.15-1.67,0.46-2.38c0.31-0.71,0.74-1.31,1.29-1.8c0.55-0.49,1.2-0.88,1.95-1.15 c0.75-0.27,1.57-0.4,2.46-0.4c0.89,0,1.71,0.13,2.46,0.4c0.76,0.27,1.41,0.65,1.96,1.15c0.55,0.49,0.98,1.1,1.29,1.8 C73.41,55.05,73.57,55.84,73.57,56.72"></path> <polygon class="st1" points="84.29,62.24 79.73,55.08 79.68,55.08 79.75,62.24 77.09,62.24 77.09,51.28 80.21,51.28 84.76,58.44 84.8,58.44 84.74,51.28 87.4,51.28 87.4,62.24 "></polygon> <polygon class="st1" points="101.72,62.24 101.78,54.49 101.74,54.49 98.79,62.24 96.87,62.24 94.01,54.49 93.96,54.49 94.02,62.24 91.44,62.24 91.44,51.28 95.34,51.28 97.92,58.31 97.98,58.31 100.45,51.28 104.41,51.28 104.41,62.24 "></polygon> <polygon class="st1" points="108.44,62.24 108.44,51.28 116.06,51.28 116.06,53.51 111.08,53.51 111.08,55.59 115.79,55.59 115.79,57.71 111.08,57.71 111.08,59.98 116.35,59.98 116.35,62.24 "></polygon> <polygon class="st1" points="127.07,62.24 122.51,55.08 122.46,55.08 122.53,62.24 119.87,62.24 119.87,51.28 122.99,51.28 127.53,58.44 127.58,58.44 127.52,51.28 130.18,51.28 130.18,62.24 "></polygon> <polygon class="st1" points="139.07,53.54 139.07,62.24 136.34,62.24 136.34,53.54 133.14,53.54 133.14,51.28 142.27,51.28 142.27,53.54 "></polygon> <path class="st1" d="M148.92,54.21l-1.44,3.76h2.85L148.92,54.21z M151.96,62.24l-0.88-2.15h-4.39l-0.83,2.15h-2.98l4.75-10.96h2.66 l4.7,10.96H151.96z"></path> <polygon class="st1" points="157.65,62.24 157.65,51.28 160.41,51.28 160.41,59.94 164.79,59.94 164.79,62.24 "></polygon> </svg>