<?xml version="1.0" encoding="UTF-8"?> <svg xmlns="http://www.w3.org/2000/svg" width="50" height="44" viewBox="0 0 50 44" fill="none"><path fill-rule="evenodd" clip-rule="evenodd" d="M36.2306 22.8741H27.3588L25.6905 24.5022C25.3107 24.8729 24.6893 24.8729 24.3095 24.5022L22.6411 22.874H13.7694C13.2323 22.874 12.793 22.4451 12.793 21.9209V0.953071C12.793 0.428882 13.2344 0 13.7694 0H36.2306C36.7656 0 37.207 0.430788 37.207 0.953071V21.9211C37.207 22.4439 36.7676 22.8741 36.2306 22.8741Z" fill="#FADC4B"></path><path d="M3.35322 34.4609C3.01191 33.8228 2.81875 33.0978 2.81875 32.3296V30.4955C3.07959 24.3637 12.0299 24.3685 12.2884 30.4955V32.3295C12.2884 33.0981 12.095 33.8235 11.7534 34.4618C12.3584 34.8582 12.9001 35.3363 13.3646 35.8831C13.8254 35.3421 14.369 34.8622 14.9844 34.4609C14.6431 33.8228 14.4499 33.0977 14.4499 32.3295V30.4955C14.7107 24.3637 23.661 24.3685 23.9195 30.4955V32.3295C23.9195 33.0977 23.7264 33.8227 23.3851 34.4608C24.0003 34.862 24.5439 35.3417 25.0048 35.8825C25.4688 35.3359 26.0104 34.8581 26.6159 34.4617C26.2743 33.8234 26.081 33.098 26.081 32.3295V30.4955C26.3418 24.3637 35.2921 24.3685 35.5506 30.4955V32.3295C35.5506 33.0977 35.3574 33.8227 35.0161 34.4609C35.6313 34.8621 36.1749 35.3417 36.6356 35.8824C37.0996 35.3358 37.6412 34.8582 38.247 34.4617C37.9054 33.8234 37.712 33.0981 37.712 32.3296V30.4955C37.9729 24.3637 46.9231 24.3685 47.1816 30.4955V32.3295C47.1816 33.0977 46.9885 33.8228 46.6471 34.4609C48.7365 35.8236 50 38.093 50 40.582V42.8891C50 43.4154 49.5628 43.8422 49.0234 43.8422H0.976562C0.437206 43.8422 0 43.4154 0 42.8891V40.582C0 38.093 1.26348 35.8235 3.35322 34.4609ZM10.3353 30.4955C10.182 26.8932 4.92373 26.8958 4.77188 30.4955V32.3295C4.9252 35.9319 10.1834 35.929 10.3353 32.3295V30.4955ZM24.7849 40.582C24.7849 38.6743 23.7816 36.9397 22.1339 35.9418C20.4982 37.2753 17.8705 37.2751 16.2351 35.9418C14.5875 36.9399 13.5841 38.6749 13.5841 40.5819V41.9359H24.7849V40.582ZM21.9662 30.4955C21.8129 26.8931 16.5548 26.8959 16.4028 30.4955V32.3295C16.5561 35.9319 21.8143 35.929 21.9662 32.3295V30.4955ZM26.738 40.582V41.936H36.4158V40.582C36.4158 38.6744 35.4125 36.9398 33.7648 35.9419C32.1293 37.2753 29.5018 37.2751 27.8664 35.9422C27.1602 36.3714 26.5624 36.9455 26.1095 37.6303C26.5179 38.5426 26.738 39.5432 26.738 40.582ZM33.5972 30.4955C33.4438 26.8931 28.1857 26.8959 28.0338 30.4955V32.3295C28.1871 35.9319 33.4452 35.929 33.5972 32.3295V30.4955ZM45.2282 30.4955C45.0749 26.8931 39.8168 26.8959 39.6648 30.4955V32.3295C39.8182 35.9319 45.0763 35.929 45.2282 32.3295V30.4955ZM48.0469 40.582C48.0469 38.6744 47.0436 36.9399 45.3959 35.9418C43.7604 37.2752 41.1328 37.2751 39.4974 35.9421C38.7907 36.3715 38.1932 36.9453 37.7404 37.6302C38.1488 38.5425 38.3689 39.5432 38.3689 40.582V41.936H48.0469V40.582ZM1.95312 41.936H11.631V40.582C11.631 39.5435 11.8512 38.543 12.2596 37.6305C11.8063 36.9458 11.2079 36.3713 10.5024 35.9422C8.8667 37.2754 6.23926 37.275 4.604 35.9418C2.95644 36.9399 1.95312 38.6744 1.95312 40.582V41.936Z" fill="#020288"></path><path d="M30.125 19.0612H19.8749C19.3827 19.0612 18.9123 18.8606 18.584 18.5111C18.2787 18.186 18.1316 17.7716 18.1699 17.3444L18.9021 9.17515C18.9813 8.29108 19.7144 7.62441 20.6071 7.62441H21.8261V6.90961C22.0009 2.79939 28.0005 2.80254 28.1737 6.90961V7.62441H29.3928C30.2854 7.62441 31.0184 8.29108 31.0978 9.17515L31.83 17.3444C31.8683 17.7716 31.7212 18.186 31.4159 18.5111C31.0876 18.8607 30.6172 19.0612 30.125 19.0612ZM26.2206 6.90951C26.1533 5.32865 23.8458 5.32989 23.7792 6.90951V7.62431H26.2206V6.90951ZM29.169 9.53045H28.1737V10.4919C28.1221 11.7564 26.2718 11.7555 26.2206 10.4919V9.53045H23.7792V10.4919C23.7275 11.7564 21.8772 11.7555 21.8261 10.4919V9.53045H20.8308L20.1474 17.155H29.8524L29.169 9.53045Z" fill="#020288"></path></svg> 